<svg xmlns="http://www.w3.org/2000/svg" xmlns:xlink="http://www.w3.org/1999/xlink" viewBox="0 0 156.5 29.07"><defs><style>.cls-1,.cls-2,.cls-22{stroke:lime;stroke-miterlimit:10;}.cls-1{fill:url(#Foliage_9);}.cls-2{fill:url(#Foliage_9-2);}.cls-3{fill:#8480b6;}.cls-4{fill:url(#linear-gradient);}.cls-5{fill:url(#linear-gradient-2);}.cls-6{fill:url(#linear-gradient-3);}.cls-7{fill:#d1d1e6;}.cls-8{fill:#5d5388;}.cls-9{fill:#6e659d;}.cls-10{fill:url(#linear-gradient-4);}.cls-11{fill:url(#radial-gradient);}.cls-12{fill:url(#linear-gradient-5);}.cls-13{fill:url(#radial-gradient-2);}.cls-14{fill:url(#linear-gradient-6);}.cls-15{fill:#1a171b;}.cls-16{fill:url(#linear-gradient-7);}.cls-17{fill:#64b8bb;}.cls-18{fill:url(#linear-gradient-8);}.cls-19{fill:#fff;}.cls-20{fill:url(#linear-gradient-9);}.cls-21{fill:url(#linear-gradient-10);}.cls-22{fill:none;}</style><linearGradient id="Foliage_9" x1="14.71" y1="0.72" x2="14.71" y2="28.35" gradientUnits="userSpaceOnUse"><stop offset="0.01" stop-color="#f5e19a"/><stop offset="0.51" stop-color="#ecc91a"/><stop offset="1" stop-color="#bf9d17"/></linearGradient><linearGradient id="Foliage_9-2" x1="14.71" y1="0.5" x2="14.71" y2="28.57" xlink:href="#Foliage_9"/><linearGradient id="linear-gradient" x1="21.5" y1="9.03" x2="19.17" y2="11.84" gradientUnits="userSpaceOnUse"><stop offset="0" stop-color="#a4a4cd"/><stop offset="0.99" stop-color="#8480b6"/></linearGradient><linearGradient id="linear-gradient-2" x1="16.85" y1="18.15" x2="17.06" y2="23.79" gradientUnits="userSpaceOnUse"><stop offset="0" stop-color="#6e659d"/><stop offset="1" stop-color="#8480b6"/></linearGradient><linearGradient id="linear-gradient-3" x1="19.91" y1="21.14" x2="24.76" y2="39.34" gradientUnits="userSpaceOnUse"><stop offset="0" stop-color="#fff6b3"/><stop offset="1" stop-color="#f8c86e"/></linearGradient><linearGradient id="linear-gradient-4" x1="8.77" y1="16.91" x2="9.6" y2="15.45" xlink:href="#linear-gradient"/><radialGradient id="radial-gradient" cx="-171.64" cy="26.34" r="1.87" gradientTransform="translate(150.17 -9.74) scale(0.79 0.78)" gradientUnits="userSpaceOnUse"><stop offset="0" stop-color="#656394"/><stop offset="1" stop-color="#484382"/></radialGradient><linearGradient id="linear-gradient-5" x1="15.29" y1="10.8" x2="16.32" y2="9.86" gradientUnits="userSpaceOnUse"><stop offset="0" stop-color="#3e406b"/><stop offset="1" stop-color="#19193c"/></linearGradient><radialGradient id="radial-gradient-2" cx="-180.59" cy="25.83" r="1.87" xlink:href="#radial-gradient"/><linearGradient id="linear-gradient-6" x1="8.25" y1="10.4" x2="9.27" y2="9.46" xlink:href="#linear-gradient-5"/><linearGradient id="linear-gradient-7" x1="674.61" y1="7.05" x2="674.61" y2="6.62" gradientTransform="matrix(-1, 0, 0, 1, 687.78, 0)" gradientUnits="userSpaceOnUse"><stop offset="0" stop-color="#9dd4dd"/><stop offset="1" stop-color="#fff"/></linearGradient><linearGradient id="linear-gradient-8" x1="674.31" y1="6.94" x2="674.31" y2="6.68" gradientTransform="matrix(-1, 0, 0, 1, 687.78, 0)" gradientUnits="userSpaceOnUse"><stop offset="0" stop-color="#0080ae"/><stop offset="1" stop-color="#1a171b"/></linearGradient><linearGradient id="linear-gradient-9" x1="671.89" y1="7.4" x2="671.89" y2="6.9" xlink:href="#linear-gradient-7"/><linearGradient id="linear-gradient-10" x1="671.82" y1="7.1" x2="671.82" y2="6.8" xlink:href="#linear-gradient-8"/></defs><g id="Layer_2" data-name="Layer 2"><g id="Layer_1-2" data-name="Layer 1"><path d="M45.47,22.26l-1.07,0c-.4,0-.82-.05-1.26-.1s-.86-.12-1.29-.2a7.23,7.23,0,0,1-1.16-.32,2,2,0,0,1-1.47-1.92V7.46a1.15,1.15,0,0,1,.31-.85,2.12,2.12,0,0,1,.84-.49,10.42,10.42,0,0,1,2.25-.46c.91-.09,1.84-.14,2.79-.14a10.1,10.1,0,0,1,5.24,1.13,3.8,3.8,0,0,1,1.83,3.48,3.12,3.12,0,0,1-.69,2,4,4,0,0,1-1.86,1.25,4.63,4.63,0,0,1,2.22,1.33A3.49,3.49,0,0,1,53,17.18a4.22,4.22,0,0,1-2,3.84A10.56,10.56,0,0,1,45.47,22.26ZM43.74,12.17h1.94a2.65,2.65,0,0,0,1.66-.42,1.45,1.45,0,0,0,.52-1.23,1.3,1.3,0,0,0-.6-1.12A3.13,3.13,0,0,0,45.47,9l-.92,0c-.34,0-.61.05-.81.08Zm0,6.4a5.2,5.2,0,0,0,1,.14c.39,0,.76,0,1.11,0a3.32,3.32,0,0,0,1.77-.43,1.47,1.47,0,0,0,.7-1.35,1.33,1.33,0,0,0-.58-1.23,3.37,3.37,0,0,0-1.78-.37H43.74Z"/><path d="M55.22,5.57a2.27,2.27,0,0,1,.67-1.67,2.71,2.71,0,0,1,3.59,0,2.28,2.28,0,0,1,.68,1.67,2.3,2.3,0,0,1-.68,1.68,2.71,2.71,0,0,1-3.59,0A2.29,2.29,0,0,1,55.22,5.57Zm4.72,16.24-.86.15a7.46,7.46,0,0,1-1.16.09,6.38,6.38,0,0,1-1-.08,1.82,1.82,0,0,1-.79-.31A1.59,1.59,0,0,1,55.6,21,2.92,2.92,0,0,1,55.43,20V9.29l.86-.14a7.46,7.46,0,0,1,1.16-.09,5.6,5.6,0,0,1,1,.08,1.71,1.71,0,0,1,.78.31,1.59,1.59,0,0,1,.49.64,2.67,2.67,0,0,1,.17,1.06Z"/><path d="M71,13.77a1.44,1.44,0,0,0-.46-1.19,2,2,0,0,0-1.26-.38,4.08,4.08,0,0,0-1,.13,2.79,2.79,0,0,0-.89.39v9.09a5,5,0,0,1-.84.16,9,9,0,0,1-1.18.08,6.6,6.6,0,0,1-1-.08,1.83,1.83,0,0,1-.78-.31A1.53,1.53,0,0,1,63,21,2.92,2.92,0,0,1,62.81,20V12.1a2,2,0,0,1,.31-1.16,3.38,3.38,0,0,1,.83-.81,7.65,7.65,0,0,1,2.28-1,11,11,0,0,1,3-.39A7.26,7.26,0,0,1,73.89,10a4.37,4.37,0,0,1,1.62,3.6v8.2a5,5,0,0,1-.84.16,9,9,0,0,1-1.18.08,6.6,6.6,0,0,1-1-.08,1.83,1.83,0,0,1-.78-.31,1.51,1.51,0,0,1-.49-.64A2.71,2.71,0,0,1,71,20Z"/><path d="M91.66,15.47a7.73,7.73,0,0,1-.51,2.9,5.7,5.7,0,0,1-1.42,2.13,5.9,5.9,0,0,1-2.19,1.31,8.5,8.5,0,0,1-2.84.45,8.21,8.21,0,0,1-2.84-.47,6.42,6.42,0,0,1-2.19-1.35,6.14,6.14,0,0,1-1.43-2.14,7.63,7.63,0,0,1-.5-2.83,7.59,7.59,0,0,1,.5-2.8,6,6,0,0,1,1.43-2.13,6.12,6.12,0,0,1,2.19-1.35,8.73,8.73,0,0,1,5.68,0,6.44,6.44,0,0,1,2.19,1.36,6,6,0,0,1,1.42,2.14A7.3,7.3,0,0,1,91.66,15.47Zm-9.3,0A4,4,0,0,0,83,17.92a2,2,0,0,0,1.74.86,2,2,0,0,0,1.71-.87,4.25,4.25,0,0,0,.6-2.44,4.18,4.18,0,0,0-.61-2.42,2.19,2.19,0,0,0-3.46,0A4.18,4.18,0,0,0,82.36,15.47Z"/><path d="M98.25,15.53c-.78-.27-1.49-.53-2.13-.8a6.61,6.61,0,0,1-1.65-1,4.08,4.08,0,0,1-1.07-1.38A4.4,4.4,0,0,1,93,10.42a4.27,4.27,0,0,1,1.74-3.56,7.87,7.87,0,0,1,4.88-1.34,12.78,12.78,0,0,1,2.12.16,6.15,6.15,0,0,1,1.69.48,2.9,2.9,0,0,1,1.1.84,1.86,1.86,0,0,1,.4,1.19,2.11,2.11,0,0,1-.32,1.17,3.17,3.17,0,0,1-.77.82,6.05,6.05,0,0,0-1.57-.64,8.06,8.06,0,0,0-2.15-.27,3.7,3.7,0,0,0-1.75.32,1,1,0,0,0-.56.83.76.76,0,0,0,.35.64,3.46,3.46,0,0,0,1,.46l1.41.44a10.45,10.45,0,0,1,3.84,2,4.27,4.27,0,0,1,1.34,3.31,4.31,4.31,0,0,1-1.78,3.6,8.43,8.43,0,0,1-5.23,1.38,12.37,12.37,0,0,1-2.27-.2,7.38,7.38,0,0,1-1.84-.57,3.41,3.41,0,0,1-1.22-.95A2,2,0,0,1,93,19.25a2,2,0,0,1,.45-1.3,3.28,3.28,0,0,1,1-.82,7.25,7.25,0,0,0,1.82,1,6.38,6.38,0,0,0,2.35.42,3.21,3.21,0,0,0,1.83-.39,1.15,1.15,0,0,0,.53-.92.89.89,0,0,0-.42-.8,6,6,0,0,0-1.2-.54Z"/><path d="M115.06,21.45a2.81,2.81,0,0,1-1,.51,5.16,5.16,0,0,1-1.51.2,5.34,5.34,0,0,1-1.89-.31,1.8,1.8,0,0,1-1.06-.85,15.53,15.53,0,0,1-.68-2c-.25-.91-.51-1.9-.76-3s-.48-2.19-.7-3.31-.39-2.1-.52-3a3.52,3.52,0,0,1,1-.64,3.42,3.42,0,0,1,1.37-.27,2.68,2.68,0,0,1,1.53.4,1.93,1.93,0,0,1,.73,1.4c.17,1.33.32,2.43.45,3.29s.22,1.57.3,2.12.14,1,.19,1.26.08.52.12.7h.11c0-.28.14-.69.27-1.22s.29-1.14.47-1.82l.56-2.22c.19-.79.38-1.58.58-2.37a5.22,5.22,0,0,1,1-.44A4.28,4.28,0,0,1,117,9.79a4,4,0,0,1,1.59.29,1.41,1.41,0,0,1,.85.89c.21.77.42,1.51.61,2.24s.37,1.4.53,2,.3,1.17.43,1.65.21.86.26,1.14h.14q.28-2,.57-4.2c.18-1.45.36-2.92.52-4.42a3.72,3.72,0,0,1,1-.42,4.22,4.22,0,0,1,1.06-.13,2.82,2.82,0,0,1,1.54.39,1.49,1.49,0,0,1,.61,1.36,8.55,8.55,0,0,1-.13,1.26c-.09.56-.21,1.19-.35,1.89s-.3,1.43-.49,2.2-.37,1.51-.56,2.22-.36,1.36-.53,1.94-.31,1-.44,1.34A2.89,2.89,0,0,1,123,22a6.66,6.66,0,0,1-1.65.2c-1.48,0-2.36-.37-2.63-1.11-.1-.31-.24-.71-.39-1.19s-.33-1-.51-1.58-.34-1.18-.5-1.8-.3-1.22-.4-1.79c-.13.61-.28,1.24-.45,1.9s-.36,1.29-.55,1.91-.36,1.19-.52,1.7S115.15,21.13,115.06,21.45Z"/><path d="M134,8.72a11.11,11.11,0,0,1,2.61.28,6,6,0,0,1,2,.88A3.94,3.94,0,0,1,140,11.37a4.78,4.78,0,0,1,.45,2.14v5.87a1.64,1.64,0,0,1-.38,1.11,4,4,0,0,1-.92.75,9.61,9.61,0,0,1-4.86,1A11.6,11.6,0,0,1,131.7,22a6.21,6.21,0,0,1-1.94-.79,3.59,3.59,0,0,1-1.24-1.33,3.85,3.85,0,0,1-.44-1.89,3.52,3.52,0,0,1,1.09-2.78,5.9,5.9,0,0,1,3.37-1.2l3.48-.37v-.18a1.13,1.13,0,0,0-.68-1.09,4.57,4.57,0,0,0-2-.33,9.21,9.21,0,0,0-2,.21,10.56,10.56,0,0,0-1.72.53,1.88,1.88,0,0,1-.59-.72,2.27,2.27,0,0,1-.24-1,1.62,1.62,0,0,1,.34-1.09,2.53,2.53,0,0,1,1-.69,7.75,7.75,0,0,1,1.82-.42A15.52,15.52,0,0,1,134,8.72ZM134.24,19a6.27,6.27,0,0,0,1-.09,2.35,2.35,0,0,0,.81-.25V16.58l-1.92.15a3,3,0,0,0-1.22.32.83.83,0,0,0-.48.78,1,1,0,0,0,.42.85A2.25,2.25,0,0,0,134.24,19Z"/><path d="M149.09,8.72a10.38,10.38,0,0,1,3,.4,6.31,6.31,0,0,1,2.35,1.25,5.73,5.73,0,0,1,1.54,2.1,7.55,7.55,0,0,1,.56,3,8.14,8.14,0,0,1-.48,2.93,5.72,5.72,0,0,1-1.35,2.11,5.58,5.58,0,0,1-2.11,1.27,8.53,8.53,0,0,1-2.75.42,6.39,6.39,0,0,1-2.13-.34v4.35a7.73,7.73,0,0,1-.85.17,7.85,7.85,0,0,1-1.19.09,5.6,5.6,0,0,1-1-.08,1.75,1.75,0,0,1-.79-.31,1.49,1.49,0,0,1-.48-.64,3.14,3.14,0,0,1-.15-1.06V11.83a2,2,0,0,1,.3-1.15,3,3,0,0,1,.84-.81,7.12,7.12,0,0,1,2-.84A11,11,0,0,1,149.09,8.72Zm0,10c1.83,0,2.74-1.07,2.74-3.22A3.84,3.84,0,0,0,151.2,13a2.39,2.39,0,0,0-1.95-.81,3.06,3.06,0,0,0-.9.12,4.27,4.27,0,0,0-.7.27v5.77a4.82,4.82,0,0,0,.7.26A2.85,2.85,0,0,0,149.14,18.72Z"/><path class="cls-1" d="M28.92,14.53C28.6,33,.82,33,.5,14.53.82-3.88,28.6-3.88,28.92,14.53Z"/><path class="cls-2" d="M14.71,28.57C-4.1,28-4.1,1.06,14.71.5,33.52,1.06,33.51,28,14.71,28.57Zm0-28C-4,1.1-4,28,14.71,28.52,33.46,28,33.45,1.1,14.71.54Z"/><path class="cls-3" d="M13.87,17.15c0,.48-.35,5.46-.31,11l.33-.05c.9-.15,1.8-.33,2.71-.46s1.9-.25,2.84-.38l1.43-.19c.4-.06.8-.13,1.21-.18a17.57,17.57,0,0,1-.38-2.19,54.48,54.48,0,0,1-.29-8.66,30.64,30.64,0,0,0-.13-6.28,4.09,4.09,0,0,0-4.2-3.41l-.35,1.19-2.55-1-2,1.16a18.31,18.31,0,0,0-4.7.06A4.86,4.86,0,0,0,6,11.14,9.28,9.28,0,0,0,7.26,16C7.55,16.39,10.79,17.25,13.87,17.15Z"/><path class="cls-4" d="M13.87,17.15c0,.46-.33,5.13-.32,10.47,2.12-.21,5.89-.58,8.47-.91-.15-.65-.23-1.31-.32-2a54.48,54.48,0,0,1-.29-8.66,30.64,30.64,0,0,0-.13-6.28,4.09,4.09,0,0,0-4.2-3.41l-.35,1.19-2.55-1-2,1.16a18.31,18.31,0,0,0-4.7.06A4.86,4.86,0,0,0,6,11.14,9.28,9.28,0,0,0,7.26,16C7.55,16.39,10.79,17.25,13.87,17.15Z"/><path class="cls-5" d="M18.79,17a3.4,3.4,0,0,1-2.06.32,5.53,5.53,0,0,0,1.32-.81,8.75,8.75,0,0,0,2.06-5.4,9.24,9.24,0,0,1-2.39,5.11c-1,.73-3.34.9-3.85.93,0,.45-.22,3.53-.29,7.48L17.83,24A25.76,25.76,0,0,1,18.79,17Z"/><path class="cls-6" d="M22,26.79c-.16-.67-.24-1.37-.34-2.06-.07-.46-.12-.92-.16-1.38a1.51,1.51,0,0,0-1.26.76,2,2,0,0,0,.22,2.31A1.43,1.43,0,0,0,22,26.79Z"/><path class="cls-7" d="M19.52,7.47c-.05.12-.29,0-.6-.13s-.59-.19-.54-.32.35-.13.67,0S19.57,7.34,19.52,7.47Z"/><path class="cls-8" d="M8.8,7.63a28.31,28.31,0,0,1,2.95.48c1.6.41,5.15.16,5.61,1.32S13.44,11,13.44,11L8.15,8.61l-.68-.86Z"/><path class="cls-9" d="M15.82,16.89c1.79-1.79,2.44-6.67,1.51-7.58s-4.11-.43-5.93-1a19.37,19.37,0,0,0-3.81-.59H7.44A4.86,4.86,0,0,0,6,11.14,9.28,9.28,0,0,0,7.26,16c.29.38,3.53,1.24,6.61,1.14v0h0A18.05,18.05,0,0,0,15.82,16.89Z"/><path class="cls-10" d="M7.75,15.47a4.53,4.53,0,0,1-1.39-2.9A6.7,6.7,0,0,1,6.1,10.1a4.75,4.75,0,0,0-.14,1A9.28,9.28,0,0,0,7.26,16c.29.38,3.53,1.24,6.61,1.14v0h.18a8.59,8.59,0,0,1,1.2-.19A16.62,16.62,0,0,1,9,16.1,3.75,3.75,0,0,1,7.75,15.47Z"/><path class="cls-11" d="M15,10.1a1,1,0,0,1,.68-1h0a1.24,1.24,0,1,0,1.16,1.72A1.06,1.06,0,0,1,15,10.1Z"/><path class="cls-12" d="M15.67,9.13a1,1,0,0,0-.68,1,1.06,1.06,0,0,0,1.81.74,1.29,1.29,0,0,0,.1-.48A1.24,1.24,0,0,0,15.67,9.13Z"/><path class="cls-13" d="M8,9.7a1,1,0,0,1,.67-1h0a1.24,1.24,0,1,0,0,2.48,1.27,1.27,0,0,0,1.16-.76,1.12,1.12,0,0,1-.75.3A1.05,1.05,0,0,1,8,9.7Z"/><path class="cls-14" d="M8.62,8.73a1,1,0,0,0,.39,2,1.12,1.12,0,0,0,.75-.3A1.28,1.28,0,0,0,9.85,10,1.24,1.24,0,0,0,8.62,8.73Z"/><path class="cls-15" d="M12.87,17.18q.48,0,1,0c-.11,1.79-.18,3.59-.24,5.38s-.08,3.75-.07,5.63h.07c0-3.1.06-6.19.21-9.28,0-.57.06-1.15.1-1.72l.81-.05h0a3,3,0,0,0,4.12-.06,0,0,0,1,0,0,0,3,3,0,0,1-4,.09,9.33,9.33,0,0,0,1.89-.39,5.44,5.44,0,0,0,.79-.32,1.05,1.05,0,0,0,.29-.17c.17-.18.33-.38.49-.58a7.39,7.39,0,0,0,1.52-6.91s0,0,0,0a1.34,1.34,0,0,1,.49,0s.05-.06,0-.06a1.49,1.49,0,0,0-1,.18s0,.08,0,.06a1.46,1.46,0,0,1,.46-.18s0,0,0,0a6.36,6.36,0,0,1-.08,4.28,9.36,9.36,0,0,1-1.55,2.73c-.13.15-.26.31-.4.45a.6.6,0,0,1-.21.11l-.44.2a8.63,8.63,0,0,1-.86.28,11.48,11.48,0,0,1-2.27.3h0a0,0,0,0,0-.06,0h0c-.54,0-1.07,0-1.6,0a18.66,18.66,0,0,1-3.48-.54,6.88,6.88,0,0,1-1.09-.34,1.48,1.48,0,0,1-.31-.15.92.92,0,0,1-.24-.31,8.15,8.15,0,0,1-.74-1.84A9.31,9.31,0,0,1,6,11.25,4.84,4.84,0,0,1,7.32,8l.14-.14h0l.3,0,.58-.06a18.44,18.44,0,0,1,2-.07,11.82,11.82,0,0,1,1.78.11s.06,0,0-.06a15.28,15.28,0,0,0-2.62-.11q-.66,0-1.32.09l-.71.08s-.07,0-.1,0a4.28,4.28,0,0,0-.62.73A5.16,5.16,0,0,0,6,10.23a6.67,6.67,0,0,0,0,2.48A10.33,10.33,0,0,0,6.7,15a5.06,5.06,0,0,0,.36.74,1,1,0,0,0,.23.32,2.46,2.46,0,0,0,.68.31c.43.14.86.25,1.29.35A20,20,0,0,0,12.87,17.18Z"/><path class="cls-15" d="M17.08,6.41a4.34,4.34,0,0,1,2.48.7c2,1.26,2,3.93,1.92,6,0,1.44-.1,2.87-.12,4.31s0,2.94,0,4.42a37.68,37.68,0,0,0,.44,4.11q.09.51.21,1h.06c0-.13-.07-.27-.1-.41a28.88,28.88,0,0,1-.52-4.15c-.09-1.47-.1-3-.08-4.42s.08-2.88.12-4.32a15.93,15.93,0,0,0-.27-4.08A4,4,0,0,0,18.92,6.7a4.47,4.47,0,0,0-1.84-.35A0,0,0,0,0,17.08,6.41Z"/><path class="cls-16" d="M11.67,7.19a1.37,1.37,0,0,1,.64-1.69c.59-.33,1.7-.43,2.14.12a1.74,1.74,0,0,1,.3,1.17c0,.35-.19.82-.54,1A6.8,6.8,0,0,1,13.1,8,1.22,1.22,0,0,1,11.67,7.19Z"/><path class="cls-17" d="M14.21,7.74A6.8,6.8,0,0,1,13.1,8a1.24,1.24,0,0,1-1.32-.53c.77.68,2.57,0,2.57,0l.17.06A.65.65,0,0,1,14.21,7.74Z"/><path class="cls-15" d="M11.64,7.2a1.41,1.41,0,0,1,.5-1.62,2.16,2.16,0,0,1,1.78-.32,1.36,1.36,0,0,1,.86,1.53,1.36,1.36,0,0,1-.33.82,1.76,1.76,0,0,1-1,.32,1.93,1.93,0,0,1-1.14,0,1.26,1.26,0,0,1-.66-.7s0-.06.06,0a1.19,1.19,0,0,0,.74.71,2.61,2.61,0,0,0,1.24-.06,2.36,2.36,0,0,0,.58-.15.81.81,0,0,0,.36-.47,1.78,1.78,0,0,0,0-1.14,1.06,1.06,0,0,0-.73-.75,2.15,2.15,0,0,0-1,0,1.49,1.49,0,0,0-1.25,1.51.85.85,0,0,0,.08.35S11.65,7.23,11.64,7.2Z"/><path class="cls-18" d="M12.62,6.67a.85.85,0,1,0,.84-.83A.84.84,0,0,0,12.62,6.67Z"/><path class="cls-15" d="M12.87,6.67a.6.6,0,1,0,.59-.59A.59.59,0,0,0,12.87,6.67Z"/><path class="cls-19" d="M13,6.38c0,.26.16.11.42.11s.53.15.53-.11a.47.47,0,0,0-.47-.46A.48.48,0,0,0,13,6.38Z"/><path class="cls-19" d="M13.35,7.13s.06.08.12.08.12,0,.12-.08-.05-.08-.12-.08S13.35,7.09,13.35,7.13Z"/><path class="cls-20" d="M14.14,7c0,1,.68,1.5,1.76,1.5s1.73-.45,1.73-1.4-.47-1.83-1.55-1.83A1.84,1.84,0,0,0,14.14,7Z"/><path class="cls-17" d="M15.9,8.49a1.56,1.56,0,0,1-1.72-1.12,1.86,1.86,0,0,0,1.62.87A1.6,1.6,0,0,0,17.62,6.9a1.15,1.15,0,0,1,0,.19C17.63,8,17,8.49,15.9,8.49Z"/><path class="cls-15" d="M14.17,7a1.42,1.42,0,0,0,.29.91,1.48,1.48,0,0,0,.78.48,2.29,2.29,0,0,0,2-.31,1.69,1.69,0,0,0,.26-1.78,1.49,1.49,0,0,0-.57-.78,1.64,1.64,0,0,0-1-.21A1.8,1.8,0,0,0,14.17,7a0,0,0,0,1-.06,0A1.76,1.76,0,0,1,15,5.49a1.92,1.92,0,0,1,1.86,0,1.78,1.78,0,0,1,.75,1.48A1.37,1.37,0,0,1,17,8.29a2.11,2.11,0,0,1-.92.22A2.59,2.59,0,0,1,15,8.37,1.42,1.42,0,0,1,14.11,7,0,0,0,1,1,14.17,7Z"/><path class="cls-21" d="M15,6.78a1,1,0,1,0,1-1A1,1,0,0,0,15,6.78Z"/><path class="cls-15" d="M15.26,6.78a.7.7,0,1,0,.7-.69A.69.69,0,0,0,15.26,6.78Z"/><path class="cls-19" d="M15.42,6.45c0,.3.19.12.49.12s.62.18.62-.12a.56.56,0,0,0-1.11,0Z"/><path class="cls-19" d="M15.8,7.28c0,.06.08.11.17.11s.16,0,.16-.11-.07-.1-.16-.1S15.8,7.22,15.8,7.28Z"/><path class="cls-22" d="M28.92,14.53C28.6,33,.82,33,.5,14.53.82-3.88,28.6-3.88,28.92,14.53Z"/><path class="cls-22" d="M14.71,28.57C-4.1,28-4.1,1.06,14.71.5,33.52,1.06,33.51,28,14.71,28.57Zm0-28C-4,1.1-4,28,14.71,28.52,33.46,28,33.45,1.1,14.71.54Z"/></g></g></svg>